<svg width="907" height="475" viewBox="0 0 907 475" fill="none" xmlns="http://www.w3.org/2000/svg">
<g opacity="0.5">
<g clip-path="url(#clip0_103_191)">
<path d="M308.227 243.145C308.227 414.01 171.913 552.514 3.77414 552.514C-164.365 552.514 -300.679 414.01 -300.679 243.145C-300.679 72.2789 -164.365 -66.2254 3.77417 -66.2254C171.913 -66.2253 308.227 72.2789 308.227 243.145Z" stroke="#F6F7FE" stroke-width="0.75"/>
<path d="M590.943 243.145C590.943 414.01 454.629 552.514 286.49 552.514C118.351 552.514 -17.963 414.01 -17.9631 243.145C-17.9631 72.2789 118.351 -66.2254 286.49 -66.2254C454.629 -66.2253 590.943 72.2789 590.943 243.145Z" stroke="#F6F7FE" stroke-width="0.75"/>
<path d="M669.614 243.145C669.613 414.009 532.75 552.514 363.931 552.514C195.112 552.514 58.2494 414.009 58.2493 243.145C58.2493 72.2804 195.112 -66.2252 363.931 -66.2254C532.75 -66.2253 669.614 72.2803 669.614 243.145Z" stroke="#F6F7FE" stroke-width="0.75"/>
<path d="M755.644 243.145C755.644 414.009 618.781 552.514 449.962 552.514C281.142 552.514 144.28 414.009 144.28 243.145C144.28 72.2804 281.142 -66.2252 449.962 -66.2254C618.781 -66.2253 755.644 72.2803 755.644 243.145Z" stroke="#F6F7FE" stroke-width="0.75"/>
<path d="M839.229 243.146C839.228 414.01 702.365 552.515 533.546 552.515C364.727 552.514 227.864 414.01 227.864 243.145C227.864 72.2811 364.727 -66.2245 533.546 -66.2246C702.365 -66.2246 839.229 72.2811 839.229 243.146Z" stroke="#F6F7FE" stroke-width="0.75"/>
<path d="M917.889 243.143C917.888 414.009 781.575 552.512 613.436 552.512C445.296 552.512 308.983 414.009 308.982 243.143C308.982 72.2772 445.296 -66.2271 613.436 -66.2271C781.575 -66.227 917.889 72.2772 917.889 243.143Z" stroke="#F6F7FE" stroke-width="0.75"/>
<path d="M1200.59 243.143C1200.59 414.008 1064.28 552.512 896.141 552.512C728.002 552.512 591.688 414.008 591.688 243.143C591.688 72.2767 728.002 -66.2276 896.141 -66.2276C1064.28 -66.2275 1200.59 72.2767 1200.59 243.143Z" stroke="#F6F7FE" stroke-width="0.75"/>
<path d="M453.649 -341.928L453.649 872.468" stroke="#F6F7FE" stroke-width="0.75" stroke-dasharray="7.1 7.1"/>
<path d="M1299.3 243.142L-392 243.142" stroke="#F6F7FE" stroke-width="0.75" stroke-dasharray="7.1 7.1"/>
</g>
<rect x="0.375" y="0.375" width="906.25" height="474.25" stroke="#F6F7FE" stroke-width="0.75"/>
</g>
<defs>
<clipPath id="clip0_103_191">
<rect width="907" height="475" fill="white"/>
</clipPath>
</defs>
</svg>
