<svg width="987" height="251" viewBox="0 0 987 251" fill="none" xmlns="http://www.w3.org/2000/svg">
<g opacity="0.5">
<g clip-path="url(#clip0_103_191)">
<path d="M348.228 131.145C348.228 302.011 211.914 440.514 43.7746 440.514C-124.364 440.514 -260.678 302.011 -260.678 131.145C-260.678 -39.7207 -124.365 -178.225 43.7747 -178.225C211.914 -178.225 348.228 -39.7206 348.228 131.145Z" stroke="#F6F7FE" stroke-width="0.75"/>
<path d="M630.943 131.145C630.943 302.011 494.629 440.514 326.49 440.514C158.351 440.514 22.0373 302.011 22.0371 131.145C22.0371 -39.7207 158.351 -178.225 326.49 -178.225C494.629 -178.225 630.943 -39.7206 630.943 131.145Z" stroke="#F6F7FE" stroke-width="0.75"/>
<path d="M709.614 131.145C709.614 302.01 572.751 440.514 403.931 440.514C235.112 440.514 98.2499 302.009 98.2497 131.145C98.2497 -39.7191 235.112 -178.225 403.931 -178.225C572.751 -178.225 709.614 -39.7192 709.614 131.145Z" stroke="#F6F7FE" stroke-width="0.75"/>
<path d="M795.645 131.145C795.645 302.01 658.781 440.514 489.962 440.514C321.143 440.514 184.281 302.009 184.281 131.145C184.281 -39.7191 321.143 -178.225 489.962 -178.225C658.782 -178.225 795.645 -39.7192 795.645 131.145Z" stroke="#F6F7FE" stroke-width="0.75"/>
<path d="M879.229 131.146C879.229 302.01 742.366 440.515 573.546 440.515C404.727 440.515 267.865 302.01 267.865 131.146C267.865 -39.7184 404.727 -178.224 573.546 -178.224C742.366 -178.224 879.229 -39.7185 879.229 131.146Z" stroke="#F6F7FE" stroke-width="0.75"/>
<path d="M957.889 131.144C957.889 302.009 821.575 440.513 653.436 440.513C485.297 440.513 348.983 302.009 348.983 131.144C348.983 -39.7224 485.297 -178.227 653.436 -178.227C821.575 -178.227 957.889 -39.7223 957.889 131.144Z" stroke="#F6F7FE" stroke-width="0.75"/>
<path d="M1240.59 131.143C1240.59 302.009 1104.28 440.512 936.141 440.512C768.002 440.512 631.689 302.009 631.688 131.143C631.688 -39.7228 768.002 -178.227 936.141 -178.227C1104.28 -178.227 1240.59 -39.7228 1240.59 131.143Z" stroke="#F6F7FE" stroke-width="0.75"/>
<path d="M489.305 -481L489.305 733.396" stroke="#F6F7FE" stroke-width="0.75" stroke-dasharray="7.1 7.1"/>
<path d="M1335.3 126L-356 126" stroke="#F6F7FE" stroke-width="0.75" stroke-dasharray="7.1 7.1"/>
</g>
<rect x="0.375" y="0.375" width="986.25" height="250.25" stroke="#F6F7FE" stroke-width="0.75"/>
</g>
<defs>
<clipPath id="clip0_103_191">
<rect width="987" height="251" fill="white"/>
</clipPath>
</defs>
</svg>
